<?xml version="1.0" encoding="UTF-8"?>
<svg version="1.1" xmlns="http://www.w3.org/2000/svg" width="32" height="32">
<path d="M0 0 C10.56 0 21.12 0 32 0 C32 10.56 32 21.12 32 32 C21.44 32 10.88 32 0 32 C0 21.44 0 10.88 0 0 Z " fill="#010101" transform="translate(0,0)"/>
<path d="M0 0 C10 0 10 0 13 2 C13.1875 4.9375 13.1875 4.9375 13 8 C13 10.18789679 13.0482789 12.37594878 13.125 14.5625 C13 18 13 18 11 20 C7.31975395 20.27629475 3.69505443 20.0859315 0 20 C0 13.4 0 6.8 0 0 Z " fill="#0A0A0A" transform="translate(9,6)"/>
<path d="M0 0 C10 0 10 0 13 2 C13.1875 4.9375 13.1875 4.9375 13 8 C13 10.18789679 13.0482789 12.37594878 13.125 14.5625 C13 18 13 18 11 20 C7.31975395 20.27629475 3.69505443 20.0859315 0 20 C0 13.4 0 6.8 0 0 Z M2 1 C2 6.94 2 12.88 2 19 C4.64 19 7.28 19 10 19 C10.66 18.34 11.32 17.68 12 17 C11.71016731 13.69316534 11.71016731 13.69316534 10 11 C8.00041636 10.95919217 5.99954746 10.95745644 4 11 C4 10.34 4 9.68 4 9 C7.465 8.505 7.465 8.505 11 8 C11 6.02 11 4.04 11 2 C8.32917961 0.47825081 8.32917961 0.47825081 2 1 Z " fill="#D2D2D2" transform="translate(9,6)"/>
<path d="M0 0 C1.0625 1.8125 1.0625 1.8125 2 4 C1.67 4.99 1.34 5.98 1 7 C1 7.99 1 8.98 1 10 C-1.64 9.34 -4.28 8.68 -7 8 C-7 7.34 -7 6.68 -7 6 C-3.535 5.505 -3.535 5.505 0 5 C0 3.35 0 1.7 0 0 Z " fill="#B5B5B5" transform="translate(20,9)"/>
</svg>
